<svg width="512" height="448" viewBox="0 0 512 448" fill="none" xmlns="http://www.w3.org/2000/svg">
<path d="M160 384H96C78.33 384 64 369.67 64 352V96C64 78.33 78.33 64 96 64H160C177.67 64 192 49.67 192 32C192 14.33 177.7 0 160 0H96C42.98 0 0 42.98 0 96V352C0 405.02 42.98 448 96 448H160C177.67 448 192 433.67 192 416C192 398.33 177.7 384 160 384ZM502.6 201.4L374.6 73.4C362.09 60.89 341.84 60.91 329.35 73.4C316.85 85.9 316.85 106.15 329.35 118.65L402.8 192H192C174.3 192 160 206.3 160 224C160 241.7 174.31 256 192 256H402.8L329.42 329.38C316.92 341.88 316.92 362.13 329.42 374.63C341.92 387.13 362.17 387.13 374.67 374.63L502.67 246.63C515.1 234.1 515.1 213.9 502.6 201.4Z" fill="#717274"/>
</svg>
