<svg width="640" height="512" viewBox="0 0 640 512" fill="none" xmlns="http://www.w3.org/2000/svg">
<path d="M592 288H576V212.7C576 170.86 545.97 132.66 504.34 128.43C456.5 123.6 416 161.1 416 208V288H400C373.6 288 352 309.6 352 336V464C352 490.4 373.6 512 400 512H592C618.4 512 640 490.4 640 464V336C640 309.6 618.4 288 592 288ZM496 432C478.38 432 464 417.62 464 400C464 382.38 478.38 368 496 368C513.62 368 528 382.38 528 400C528 417.62 513.6 432 496 432ZM528 288H464V208C464 190.38 478.38 176 496 176C513.62 176 528 190.38 528 208V288ZM224 256C294.7 256 352 198.69 352 128C352 57.31 294.7 0 224 0C153.3 0 96 57.31 96 128C96 198.69 153.3 256 224 256ZM320 336C320 327.328 321.738 319.13 324.303 311.3C308.6 306.6 291.9 304 274.7 304H173.3C77.61 304 0 381.7 0 477.4C0 496.5 15.52 512 34.66 512H336.36C326.3 498.6 320 482.1 320 464V336Z" fill="#717274"/>
</svg>
