<svg width="633" height="512" viewBox="0 0 633 512" fill="none" xmlns="http://www.w3.org/2000/svg">
<path d="M274.7 304H173.3C77.61 304 0 381.6 0 477.3C0 496.5 15.52 512 34.66 512H413.36C432.5 512 448 496.5 448 477.3C448 381.6 370.4 304 274.7 304ZM224 256C294.7 256 352 198.69 352 128C352 57.31 294.7 0 224 0C153.3 0 96 57.31 96 128C96 198.69 153.3 256 224 256ZM577.9 223.1L624.93 176.07C634.305 166.695 634.305 151.51 624.93 142.13C615.555 132.75 600.37 132.755 590.99 142.13L544 190.1L496.97 143.07C487.595 133.695 472.41 133.695 463.03 143.07C453.65 152.445 453.655 167.63 463.03 177.01L510.06 224.04L463.03 271.07C453.655 280.445 453.655 295.63 463.03 305.01C472.403 314.383 487.59 314.391 496.97 305.01L544 257.9L591.03 304.93C600.403 314.303 615.59 314.311 624.97 304.93C634.345 295.555 634.345 280.37 624.97 270.99L577.9 223.1Z" fill="#717274"/>
</svg>
