<svg width="484" height="512" viewBox="0 0 484 512" fill="none" xmlns="http://www.w3.org/2000/svg">
<path d="M481.9 166.6C485.2 175.2 482.4 184.9 475.6 191.2L432.3 230.6C433.4 238.9 434 247.4 434 256C434 264.6 433.4 273.1 432.3 281.4L475.6 320.8C482.4 327.1 485.2 336.8 481.9 345.4C477.5 357.3 472.2 368.8 466.2 379.7L461.5 387.8C454.9 398.8 447.5 409.2 439.4 419.1C433.4 426.2 423.7 428.7 414.9 425.9L359.2 408.1C345.8 418.4 330.1 427 315.2 433.6L302.7 490.7C300.7 499.7 293.7 506.1 284.5 508.5C270.7 510.8 256.5 512 241.1 512C227.5 512 213.3 510.8 199.5 508.5C190.3 506.1 183.3 499.7 181.3 490.7L168.8 433.6C153 427 138.2 418.4 124.8 408.1L69.14 425.9C60.3 428.7 50.55 426.2 44.63 419.1C36.52 409.2 29.12 398.8 22.52 387.8L17.84 379.7C11.77 368.8 6.48998 357.3 2.05998 345.4C-1.18002 336.8 1.54998 327.1 8.40998 320.8L51.67 281.4C50.57 273.1 50 264.6 50 256C50 247.4 50.57 238.9 51.67 230.6L8.40998 191.2C1.54998 184.9 -1.18002 175.3 2.05998 166.6C6.48998 154.7 11.78 143.2 17.84 132.3L22.51 124.2C29.12 113.2 36.52 102.8 44.63 92.95C50.55 85.8 60.3 83.32 69.14 86.14L124.8 103.9C138.2 93.56 153 84.96 168.8 78.43L181.3 21.33C183.3 12.25 190.3 5.04 199.5 3.51C213.3 1.201 227.5 0 242 0C256.5 0 270.7 1.201 284.5 3.51C293.7 5.04 300.7 12.25 302.7 21.33L315.2 78.43C330.1 84.96 345.8 93.56 359.2 103.9L414.9 86.14C423.7 83.32 433.4 85.8 439.4 92.95C447.5 102.8 454.9 113.2 461.5 124.2L466.2 132.3C472.2 143.2 477.5 154.7 481.9 166.6ZM242 336C286.2 336 322 300.2 322 255.1C322 211.8 286.2 175.1 242 175.1C197.8 175.1 162 211.8 162 255.1C162 300.2 197.8 336 242 336Z" fill="#717274"/>
</svg>
