<svg width="640" height="475" viewBox="0 0 640 475" fill="none" xmlns="http://www.w3.org/2000/svg">
<path d="M484.6 25C502.6 15.8 522.6 11 542.8 11H600.2C627.2 11 645.9 37.95 636.4 63.2C618.2 111.9 582.1 151.9 535.6 175.2L262.8 311.6C258.3 313.8 253.4 315 248.4 315H110.7C101.4 315 92.5 310.9 86.42 303.8L13.34 218.6C6.562 210.7 9.019 198.5 18.33 193.8L50.49 177.8C59.05 173.5 69.06 173.2 77.8 177.1L135.1 202.1L234.6 152.7L87.64 58.2C77.21 51.49 78.05 35.98 89.14 30.43L135 7.48C150.1 -0.479997 169.5 -1.45 186.1 4.8L381 77.9L484.6 25ZM0 443C0 425.3 14.33 411 32 411H608C625.7 411 640 425.3 640 443C640 460.7 625.7 475 608 475H32C14.33 475 0 460.7 0 443Z" fill="url(#paint0_linear_3_9)"/>
<defs>
<linearGradient id="paint0_linear_3_9" x1="342.5" y1="58" x2="999" y2="816.5" gradientUnits="userSpaceOnUse">
<stop stop-color="#4D85F1"/>
<stop offset="1" stop-color="#4D85F1" stop-opacity="0"/>
</linearGradient>
</defs>
</svg>
