<svg width="629" height="501" viewBox="0 0 629 501" fill="none" xmlns="http://www.w3.org/2000/svg">
<path d="M283.3 147.1C284.4 153.9 285 160.9 285 167.1C285 175.1 284.4 182.1 283.3 188.9L305.5 208.7C312.5 215 315.4 224.1 311.7 233.7C309.4 238.1 306.9 244.2 304.1 249.2L301 254.6C297.1 259.6 294.7 264.4 291.2 269.1C285.5 276.7 275.5 279.2 266.5 276.2L238.2 266.9C227.5 275.8 215.3 282.9 202 287.9L195.1 316.9C194 326.2 186.8 333.6 177.4 334.8C170.7 335.6 163.9 336 157 336C150.1 336 143.3 335.6 136.6 334.8C127.2 333.6 119.1 326.2 118 316.9L111.1 287.9C98.7 282.9 86.5 275.8 75.75 266.9L47.53 276.2C38.54 279.2 28.52 276.7 22.82 269.1C19.28 264.4 15.98 259.5 12.94 254.5L9.92002 249.2C7.13002 244.2 4.59202 239 2.32402 233.7C-1.37998 224.1 1.45802 215 8.52002 208.7L30.7 188.9C29.58 182.1 28.1 175.1 28.1 167.1C28.1 160.9 29.58 153.9 30.7 147.1L8.52002 127.3C1.45802 120.1 -1.37998 111 2.32402 102.3C4.59202 96.1 7.13002 91.79 9.91002 86.76L12.95 81.51C15.98 76.46 19.28 71.58 22.82 66.89C28.52 59.34 38.54 56.83 47.53 59.79L75.75 69.09C86.5 60.25 98.7 53.13 111.1 48.15L118 19.08C119.1 9.8 127.2 2.37 136.6 1.231C143.3 0.418 150.1 0 157 0C163.9 0 170.7 0.418 177.4 1.23C186.8 2.37 194 9.8 195.1 19.08L202 48.15C215.3 53.13 227.5 60.25 238.2 69.09L266.5 59.79C275.5 56.83 285.5 59.34 291.2 66.89C294.7 71.56 297.1 76.42 301 81.44L304.1 86.83C306.9 91.84 309.4 97 311.7 102.3C315.4 111 312.5 120.1 305.5 127.3L283.3 147.1ZM157 119.1C130.5 119.1 109 141.5 109 167.1C109 194.5 130.5 215.1 157 215.1C183.5 215.1 205 194.5 205 167.1C205 141.5 183.5 119.1 157 119.1ZM481.9 470.3C475.1 471.4 468.1 472 461 472C453.9 472 446.9 471.4 440.1 470.3L420.3 492.5C413.1 499.5 404 502.4 395.3 498.7C390 496.4 384.8 493.9 379.8 491.1L374.4 488C369.4 484.1 364.6 481.7 359.9 478.2C352.3 472.5 349.8 462.5 352.8 453.5L362.1 425.2C353.2 414.5 346.1 402.3 341.1 389L312.1 382.1C302.8 381 295.4 373.8 294.2 364.4C293.4 357.7 293 350.9 293 344C293 337.1 293.4 330.3 294.2 323.6C295.4 314.2 302.8 306.1 312.1 305L341.1 298.1C346.1 285.7 353.2 273.5 362.1 262.8L352.8 234.5C349.8 225.5 352.3 215.5 359.9 209.8C364.6 206.3 369.5 202.1 374.5 199.9L379.8 196.9C384.8 194.1 389.1 191.6 395.3 189.3C404 185.6 413.1 188.5 420.3 195.5L440.1 217.7C446.9 216.6 453.9 216 461 216C468.1 216 475.1 216.6 481.9 217.7L501.7 195.5C508 188.5 517.1 185.6 526.7 189.3C532 191.6 537.2 194.1 542.2 196.9L547.5 199.9C552.5 202.1 557.4 206.3 562.1 209.8C569.7 215.5 572.2 225.5 569.2 234.5L559.9 262.8C568.8 273.5 575.9 285.7 580.9 298.1L609.9 305C619.2 306.1 626.6 314.2 627.8 323.6C628.6 330.3 629 337.1 629 344C629 350.9 628.6 357.7 627.8 364.4C626.6 373.8 619.2 381 609.9 382.1L580.9 389C575.9 402.3 568.8 414.5 559.9 425.2L569.2 453.5C572.2 462.5 569.7 472.5 562.1 478.2C557.4 481.7 552.6 484.1 547.6 488L542.2 491.1C537.2 493.9 531.1 496.4 526.7 498.7C517.1 502.4 508 499.5 501.7 492.5L481.9 470.3ZM509 344C509 317.5 487.5 296 461 296C434.5 296 413 317.5 413 344C413 370.5 434.5 392 461 392C487.5 392 509 370.5 509 344Z" fill="url(#paint0_linear_3_5)"/>
<defs>
<linearGradient id="paint0_linear_3_5" x1="68" y1="78" x2="1399.5" y2="1498.5" gradientUnits="userSpaceOnUse">
<stop stop-color="#4D85F1"/>
<stop offset="1" stop-color="#4D85F1" stop-opacity="0"/>
</linearGradient>
</defs>
</svg>
