<svg width="448" height="512" viewBox="0 0 448 512" fill="none" xmlns="http://www.w3.org/2000/svg">
<path d="M224 256C294.7 256 352 198.69 352 128C352 57.31 294.7 0 224 0C153.3 0 96 57.31 96 128C96 198.69 153.3 256 224 256ZM274.7 304H173.3C77.61 304 0 381.6 0 477.3C0 496.44 15.52 511.97 34.66 511.97H413.36C432.5 512 448 496.5 448 477.3C448 381.6 370.4 304 274.7 304Z" fill="url(#paint0_linear_3_3)"/>
<defs>
<linearGradient id="paint0_linear_3_3" x1="224" y1="-9.33612e-06" x2="940" y2="1238.5" gradientUnits="userSpaceOnUse">
<stop stop-color="#4D85F1"/>
<stop offset="1" stop-color="#4D85F1" stop-opacity="0"/>
</linearGradient>
</defs>
</svg>
