<svg width="512" height="512" viewBox="0 0 512 512" fill="none" xmlns="http://www.w3.org/2000/svg">
<path d="M501.6 4.18601C494.006 -0.969994 484.19 -1.40799 476.16 3.12301L12.12 267.1C4.184 271.7 -0.5037 280.3 0.0431 289.4C0.59 298.525 6.2771 306.56 14.7031 310.09L168.003 374.47V487.97C168.003 496.751 172.8 504.81 180.503 509.03C184.1 511 188 512 191.1 512C195.616 512 200.138 510.719 204.09 508.188L315.29 436.728L413.85 478.128C416.834 479.378 419.991 480.003 423.147 480.003C427.225 480.003 431.288 478.972 434.927 476.909C441.38 473.284 445.807 466.849 446.877 459.529L510.877 27.529C513.1 18.44 509.1 9.37301 501.6 4.18601ZM369.3 119.2L182.2 328.1L78.23 284.7L369.3 119.2ZM215.1 444V394.64L261.55 414.15L215.1 444ZM404.8 421.9L228.2 347.71L452.8 98.21L404.8 421.9Z" fill="#717274"/>
</svg>
